<svg xmlns="http://www.w3.org/2000/svg" width="1200" height="627" viewBox="0 0 1200 627" role="img" aria-labelledby="title desc"><title id="title">PARANOIA</title><desc id="desc">Détecter, masquer, relire. Limites documentées.</desc><defs><pattern id="paranoia-linkedin-share-grid" width="33" height="33" patternUnits="userSpaceOnUse"><path d="M32 0V33M0 32H33" stroke="#ffffff" stroke-opacity="0.055" stroke-width="1"/></pattern></defs><rect width="1200" height="627" fill="#050505"/><rect width="1200" height="627" fill="url(#paranoia-linkedin-share-grid)"/><rect x="48" y="63" width="1104" height="502" rx="8" fill="#050505" fill-opacity="0.72" stroke="#ffffff" stroke-opacity="0.14"/><rect x="84" y="125" width="75" height="75" rx="13.5" fill="#050505" stroke="#9fe8ff" stroke-opacity="0.26" stroke-width="1.3499999999999999"/><path d="M102.75 140h27c13.5 0 21.000000000000004 7.5 21.000000000000004 19.5 0 12.750000000000002-8.25 21.000000000000004-21.75 21.000000000000004h-12v15H102.75V140Zm11.25 11.25v18.75h12c6 0 9.75-3 9.75-9.75 0-6-3.75-9-9.75-9h-12Z" fill="#f7f7f2"/><rect x="139.5" y="179" width="7.5" height="15" fill="#9fe8ff"/><text x="189" y="164" fill="#9fe8ff" font-family="JetBrains Mono, SFMono-Regular, Consolas, monospace" font-size="24" font-weight="700">[ PARANOIA ]</text><text x="84" y="270.4" fill="#f7f7f2" font-family="Archivo, Avenir Next, Helvetica Neue, sans-serif" font-size="64" font-weight="540" letter-spacing="0">Inspecter avant</text>
<text x="84" y="336.32" fill="#f7f7f2" font-family="Archivo, Avenir Next, Helvetica Neue, sans-serif" font-size="64" font-weight="540" letter-spacing="0">d’envoyer</text><text x="84" y="470" fill="#b8bdc4" font-family="Archivo, Avenir Next, Helvetica Neue, sans-serif" font-size="27" font-weight="470">Détecter, masquer, relire. Limites documentées.</text><text x="84" y="527" fill="#9fe8ff" font-family="JetBrains Mono, SFMono-Regular, Consolas, monospace" font-size="24" font-weight="650">paranoia.re</text><line x1="744" y1="75" x2="744" y2="552" stroke="#9fe8ff" stroke-opacity="0.18" stroke-width="2"/><g transform="translate(828 107) scale(0.6133333333333333)" opacity="0.82"><rect x="42" y="0" width="300" height="178" rx="8" fill="#080a0d" stroke="#9fe8ff" stroke-opacity="0.22"/><rect x="0" y="126" width="238" height="146" rx="8" fill="#10151c" stroke="#9fe8ff" stroke-opacity="0.22"/><rect x="226" y="206" width="238" height="126" rx="8" fill="#080a0d" stroke="#9fe8ff" stroke-opacity="0.22"/><path d="M72 42h86M72 74h140M72 106h102" stroke="#9fe8ff" stroke-opacity="0.68" stroke-width="6"/><path d="M196 74h94M196 106h118" stroke="#9fe8ff" stroke-opacity="0.24" stroke-width="6"/><path d="M34 166h74M34 198h96M34 230h68" stroke="#9fe8ff" stroke-opacity="0.24" stroke-width="7"/><path d="M136 166h72M136 198h54M136 230h84" stroke="#9fe8ff" stroke-opacity="0.55" stroke-width="7"/><path d="M258 246h52M258 278h118M258 308h80" stroke="#9fe8ff" stroke-opacity="0.25" stroke-width="7"/><path d="M354 278h66M354 308h48" stroke="#9fe8ff" stroke-opacity="0.60" stroke-width="7"/></g></svg>