<svg xmlns="http://www.w3.org/2000/svg" width="1200" height="627" viewBox="0 0 1200 627" role="img" aria-labelledby="paranoia-linkedin-share-title paranoia-linkedin-share-desc">
  <title id="paranoia-linkedin-share-title">PARANOIA</title>
  <desc id="paranoia-linkedin-share-desc">Réduire l’exposition avant l’envoi</desc>
  <defs>
    <pattern id="paranoia-linkedin-share-grid" width="36" height="36" patternUnits="userSpaceOnUse">
      <path d="M35 0V36M0 35H36" stroke="#ffffff" stroke-opacity="0.07" stroke-width="1"/>
    </pattern>
    <style>
      .brand { font: 700 24px JetBrains Mono, SFMono-Regular, Consolas, monospace; }
      .card-title { font: 570 66px Archivo, Avenir Next, Helvetica Neue, sans-serif; letter-spacing: 0; fill: #f7f7f2; }
      .deck { font: 470 29px Archivo, Avenir Next, Helvetica Neue, sans-serif; fill: #b8bdc4; }
      .route { font: 700 25px JetBrains Mono, SFMono-Regular, Consolas, monospace; fill: #9fe8ff; }
      .artifact-label { font: 700 20px JetBrains Mono, SFMono-Regular, Consolas, monospace; fill: #9fe8ff; }
      .artifact-text { font: 520 25px Archivo, Avenir Next, Helvetica Neue, sans-serif; fill: #f7f7f2; }
      .artifact-small { font: 450 19px Archivo, Avenir Next, Helvetica Neue, sans-serif; fill: #b8bdc4; }
    </style>
  </defs>
  <rect width="1200" height="627" fill="#050505"/>
  <rect width="1200" height="627" fill="url(#paranoia-linkedin-share-grid)"/>
  <rect x="42" y="42" width="1116" height="543" rx="10" fill="#081015" fill-opacity="0.72" stroke="#ffffff" stroke-opacity="0.18"/>
  <g transform="translate(84 88)">
    <rect width="112" height="112" rx="18" fill="#050505" stroke="#9fe8ff" stroke-opacity=".35"/>
    <path d="M31 25h34c17 0 27 10 27 25 0 16-11 27-28 27H46v20H31V25Zm15 14v24h16c9 0 14-4 14-12 0-8-5-12-14-12H46Z" fill="#f7f7f2"/>
    <rect x="80" y="76" width="10" height="20" fill="#9fe8ff"/>
    <text x="142" y="67" class="brand" fill="#9fe8ff">[ PARANOIA ]</text>
  </g>
  <text x="84" y="262" class="card-title">Réduire</text>
    <text x="84" y="334" class="card-title">l’exposition</text>
    <text x="84" y="406" class="card-title">avant l’envoi.</text>
  <text x="84" y="510" class="deck">Détecter · masquer · relire</text>
  <text x="84" y="555" class="route">paranoia.re</text>
  <line x1="690" y1="78" x2="690" y2="549" stroke="#9fe8ff" stroke-opacity="0.28" stroke-width="2"/>
  <g transform="translate(744 112)">
    <rect width="344" height="388" rx="10" fill="#050505" stroke="#9fe8ff" stroke-opacity=".24"/>
    <text x="28" y="46" class="artifact-label">BOUNDARY</text>
    <g transform="translate(32 92)">
    <rect width="220" height="54" rx="7" fill="#14181f" stroke="#ff675f" stroke-opacity=".55"/>
    <text x="18" y="35" class="artifact-text">raw prompt</text>
  </g>
    <g transform="translate(32 180)">
    <rect width="220" height="54" rx="7" fill="#08151a" stroke="#9fe8ff" stroke-opacity=".55"/>
    <text x="18" y="35" class="artifact-text">masked context</text>
  </g>
    <g transform="translate(32 268)">
    <rect width="220" height="54" rx="7" fill="#08151a" stroke="#9fe8ff" stroke-opacity=".55"/>
    <text x="18" y="35" class="artifact-text">review</text>
  </g>
    <path d="M270 124v176" stroke="#9fe8ff" stroke-opacity=".75" stroke-width="4" stroke-dasharray="8 8"/>
  </g>
</svg>
