<svg xmlns="http://www.w3.org/2000/svg" width="1200" height="600" viewBox="0 0 1200 600" role="img" aria-labelledby="title desc"><title id="title">PARANOIA</title><desc id="desc">Détecter, masquer, relire. Limites documentées.</desc><defs><pattern id="paranoia-x-card-grid" width="33" height="33" patternUnits="userSpaceOnUse"><path d="M32 0V33M0 32H33" stroke="#ffffff" stroke-opacity="0.055" stroke-width="1"/></pattern><radialGradient id="paranoia-x-card-signal" cx="10%" cy="0%" r="78%"><stop offset="0" stop-color="#9fe8ff" stop-opacity="0.22"/><stop offset="1" stop-color="#050505" stop-opacity="0"/></radialGradient></defs><rect width="1200" height="600" fill="#050505"/><rect width="1200" height="600" fill="url(#paranoia-x-card-grid)"/><rect width="1200" height="600" fill="url(#paranoia-x-card-signal)"/><rect x="48" y="60" width="1104" height="480" rx="8" fill="#050505" fill-opacity="0.72" stroke="#ffffff" stroke-opacity="0.14"/><rect x="84" y="120" width="72" height="72" rx="12.959999999999999" fill="#050505" stroke="#9fe8ff" stroke-opacity="0.26" stroke-width="1.2959999999999998"/><path d="M102 134.4h25.919999999999998c12.959999999999999 0 20.160000000000004 7.2 20.160000000000004 18.72 0 12.24-7.92 20.160000000000004-20.88 20.160000000000004h-11.52v14.4H102V134.4Zm10.799999999999999 10.799999999999999v18h11.52c5.76 0 9.36-2.88 9.36-9.36 0-5.76-3.6-8.64-9.36-8.64h-11.52Z" fill="#f7f7f2"/><rect x="137.28" y="171.84" width="7.2" height="14.4" fill="#9fe8ff"/><text x="186" y="157" fill="#9fe8ff" font-family="JetBrains Mono, SFMono-Regular, Consolas, monospace" font-size="23" font-weight="700">[ PARANOIA ]</text><text x="84" y="259.1" fill="#f7f7f2" font-family="Archivo, Avenir Next, Helvetica Neue, sans-serif" font-size="61" font-weight="790" letter-spacing="0">Réduire l'exposition</text>
<text x="84" y="321.93" fill="#f7f7f2" font-family="Archivo, Avenir Next, Helvetica Neue, sans-serif" font-size="61" font-weight="790" letter-spacing="0">des prompts IA</text><text x="84" y="450" fill="#b8bdc4" font-family="Archivo, Avenir Next, Helvetica Neue, sans-serif" font-size="26" font-weight="470">Détecter, masquer, relire. Limites documentées.</text><text x="84" y="504" fill="#9fe8ff" font-family="JetBrains Mono, SFMono-Regular, Consolas, monospace" font-size="23" font-weight="650">paranoia.re</text><line x1="744" y1="72" x2="744" y2="528" stroke="#9fe8ff" stroke-opacity="0.18" stroke-width="2"/><g transform="translate(828 102) scale(0.6133333333333333)" opacity="0.82"><rect x="42" y="0" width="300" height="178" rx="8" fill="#080a0d" stroke="#9fe8ff" stroke-opacity="0.22"/><rect x="0" y="126" width="238" height="146" rx="8" fill="#10151c" stroke="#9fe8ff" stroke-opacity="0.22"/><rect x="226" y="206" width="238" height="126" rx="8" fill="#080a0d" stroke="#9fe8ff" stroke-opacity="0.22"/><path d="M72 42h86M72 74h140M72 106h102" stroke="#9fe8ff" stroke-opacity="0.68" stroke-width="6"/><path d="M196 74h94M196 106h118" stroke="#9fe8ff" stroke-opacity="0.24" stroke-width="6"/><path d="M34 166h74M34 198h96M34 230h68" stroke="#9fe8ff" stroke-opacity="0.24" stroke-width="7"/><path d="M136 166h72M136 198h54M136 230h84" stroke="#9fe8ff" stroke-opacity="0.55" stroke-width="7"/><path d="M258 246h52M258 278h118M258 308h80" stroke="#9fe8ff" stroke-opacity="0.25" stroke-width="7"/><path d="M354 278h66M354 308h48" stroke="#9fe8ff" stroke-opacity="0.60" stroke-width="7"/></g></svg>