<svg xmlns="http://www.w3.org/2000/svg" width="1500" height="500" viewBox="0 0 1500 500" role="img" aria-labelledby="title desc"><title id="title">PARANOIA</title><desc id="desc">Détecter, masquer, relire. Limites documentées.</desc><defs><pattern id="paranoia-x-header-grid" width="42" height="42" patternUnits="userSpaceOnUse"><path d="M41 0V42M0 41H42" stroke="#ffffff" stroke-opacity="0.055" stroke-width="1"/></pattern><radialGradient id="paranoia-x-header-signal" cx="10%" cy="0%" r="78%"><stop offset="0" stop-color="#9fe8ff" stop-opacity="0.22"/><stop offset="1" stop-color="#050505" stop-opacity="0"/></radialGradient></defs><rect width="1500" height="500" fill="#050505"/><rect width="1500" height="500" fill="url(#paranoia-x-header-grid)"/><rect width="1500" height="500" fill="url(#paranoia-x-header-signal)"/><rect x="60" y="50" width="1380" height="400" rx="8" fill="#050505" fill-opacity="0.72" stroke="#ffffff" stroke-opacity="0.14"/><rect x="105" y="100" width="85" height="85" rx="15.299999999999999" fill="#050505" stroke="#9fe8ff" stroke-opacity="0.26" stroke-width="1.5299999999999998"/><path d="M126.25 117h30.599999999999998c15.299999999999999 0 23.8 8.5 23.8 22.1 0 14.450000000000001-9.35 23.8-24.65 23.8h-13.6v17H126.25V117Zm12.75 12.75v21.25h13.6c6.8 0 11.05-3.4 11.05-11.05 0-6.8-4.25-10.2-11.05-10.2h-13.6Z" fill="#f7f7f2"/><rect x="167.9" y="161.2" width="8.5" height="17" fill="#9fe8ff"/><text x="228" y="144" fill="#9fe8ff" font-family="JetBrains Mono, SFMono-Regular, Consolas, monospace" font-size="19" font-weight="700">[ PARANOIA ]</text><text x="105" y="243.3" fill="#f7f7f2" font-family="Archivo, Avenir Next, Helvetica Neue, sans-serif" font-size="53" font-weight="790" letter-spacing="0">Réduire l'exposition</text>
<text x="105" y="297.89" fill="#f7f7f2" font-family="Archivo, Avenir Next, Helvetica Neue, sans-serif" font-size="53" font-weight="790" letter-spacing="0">des prompts IA</text><text x="105" y="375" fill="#b8bdc4" font-family="Archivo, Avenir Next, Helvetica Neue, sans-serif" font-size="24" font-weight="470">Détecter, masquer, relire. Limites documentées.</text><text x="105" y="420" fill="#9fe8ff" font-family="JetBrains Mono, SFMono-Regular, Consolas, monospace" font-size="19" font-weight="650">paranoia.re</text><line x1="930" y1="60" x2="930" y2="440" stroke="#9fe8ff" stroke-opacity="0.18" stroke-width="3"/><g transform="translate(1035 85) scale(0.7076923076923077)" opacity="0.82"><rect x="42" y="0" width="300" height="178" rx="8" fill="#080a0d" stroke="#9fe8ff" stroke-opacity="0.22"/><rect x="0" y="126" width="238" height="146" rx="8" fill="#10151c" stroke="#9fe8ff" stroke-opacity="0.22"/><rect x="226" y="206" width="238" height="126" rx="8" fill="#080a0d" stroke="#9fe8ff" stroke-opacity="0.22"/><path d="M72 42h86M72 74h140M72 106h102" stroke="#9fe8ff" stroke-opacity="0.68" stroke-width="6"/><path d="M196 74h94M196 106h118" stroke="#9fe8ff" stroke-opacity="0.24" stroke-width="6"/><path d="M34 166h74M34 198h96M34 230h68" stroke="#9fe8ff" stroke-opacity="0.24" stroke-width="7"/><path d="M136 166h72M136 198h54M136 230h84" stroke="#9fe8ff" stroke-opacity="0.55" stroke-width="7"/><path d="M258 246h52M258 278h118M258 308h80" stroke="#9fe8ff" stroke-opacity="0.25" stroke-width="7"/><path d="M354 278h66M354 308h48" stroke="#9fe8ff" stroke-opacity="0.60" stroke-width="7"/></g></svg>