<svg xmlns="http://www.w3.org/2000/svg" width="1500" height="500" viewBox="0 0 1500 500" role="img" aria-labelledby="title desc">
  <title id="title">Paranoia X header fallback</title>
  <desc id="desc">Inspect before sending. Detect, mask, review. Documented limits.</desc>
  <defs>
    <pattern id="grid" width="42" height="42" patternUnits="userSpaceOnUse">
      <path d="M41 0V42M0 41H42" stroke="#ffffff" stroke-opacity=".055" stroke-width="1"/>
    </pattern>
  </defs>
  <rect width="1500" height="500" fill="#050505"/>
  <rect width="1500" height="500" fill="url(#grid)"/>
  <rect x="48" y="46" width="1404" height="408" rx="10" fill="#050505" fill-opacity=".66" stroke="#ffffff" stroke-opacity=".12"/>
  <g transform="translate(88 82)">
    <text x="0" y="60" fill="#f7f7f2" font-family="Archivo, Helvetica Neue, sans-serif" font-size="68" font-weight="560">Paranoia</text>
    <circle cx="368" cy="42" r="16" fill="#9fe8ff"/>
    <text x="0" y="104" fill="#9fe8ff" font-family="JetBrains Mono, SFMono-Regular, Consolas, monospace" font-size="17" font-weight="650">[ PROMPTS IA ]</text>
  </g>
  <g transform="translate(380 158)">
    <text x="0" y="58" fill="#f7f7f2" font-family="Archivo, Avenir Next, Helvetica Neue, sans-serif" font-size="54" font-weight="520" letter-spacing="-.8">Inspect before</text>
    <text x="0" y="118" fill="#f7f7f2" font-family="Archivo, Avenir Next, Helvetica Neue, sans-serif" font-size="54" font-weight="520" letter-spacing="-.8">sending</text>
    <text x="0" y="176" fill="#c7ccd2" font-family="Archivo, Avenir Next, Helvetica Neue, sans-serif" font-size="24" font-weight="430">Detect, mask, review. Documented limits.</text>
    <text x="0" y="232" fill="#9fe8ff" font-family="JetBrains Mono, SFMono-Regular, Consolas, monospace" font-size="19" font-weight="650">paranoia.re</text>
  </g>
  <line x1="935" y1="72" x2="935" y2="428" stroke="#9fe8ff" stroke-opacity=".22" stroke-width="3"/>
  <g transform="translate(1015 84)">
    <rect x="0" y="0" width="300" height="138" rx="8" fill="#071015" stroke="#9fe8ff" stroke-opacity=".28"/>
    <text x="24" y="42" fill="#f7f7f2" font-family="JetBrains Mono, SFMono-Regular, Consolas, monospace" font-size="18" font-weight="650">PROMPT ORIGINAL</text>
    <rect x="24" y="66" width="220" height="8" fill="#36414b"/>
    <rect x="24" y="90" width="86" height="8" fill="#36414b"/>
    <rect x="122" y="90" width="74" height="8" fill="#f04444" opacity=".86"/>
    <rect x="24" y="114" width="138" height="8" fill="#f04444" opacity=".86"/>
    <rect x="174" y="114" width="88" height="8" fill="#36414b"/>
    <rect x="0" y="162" width="360" height="146" rx="8" fill="#071015" stroke="#ffffff" stroke-opacity=".16"/>
    <text x="24" y="204" fill="#f7f7f2" font-family="JetBrains Mono, SFMono-Regular, Consolas, monospace" font-size="18" font-weight="650">RULES APPLIED</text>
    <text x="24" y="244" fill="#c7ccd2" font-family="Archivo, Helvetica Neue, sans-serif" font-size="20">PII</text>
    <text x="226" y="244" fill="#f7f7f2" font-family="Archivo, Helvetica Neue, sans-serif" font-size="20">Masked</text>
    <circle cx="320" cy="237" r="7" fill="#9fe8ff"/>
    <text x="24" y="280" fill="#c7ccd2" font-family="Archivo, Helvetica Neue, sans-serif" font-size="20">Secrets</text>
    <text x="226" y="280" fill="#f7f7f2" font-family="Archivo, Helvetica Neue, sans-serif" font-size="20">Masked</text>
    <circle cx="320" cy="273" r="7" fill="#9fe8ff"/>
  </g>
  <rect x="0" y="300" width="356" height="200" fill="#050505" fill-opacity=".68"/>
</svg>
